<?xml version="1.0" encoding="utf-8"?>
<!-- Generator: Adobe Illustrator 23.0.0, SVG Export Plug-In . SVG Version: 6.00 Build 0)  -->
<svg version="1.0" id="Layer_1" xmlns="http://www.w3.org/2000/svg" xmlns:xlink="http://www.w3.org/1999/xlink" x="0px" y="0px"
	 viewBox="0 0 1080 1080" style="enable-background:new 0 0 1080 1080;" xml:space="preserve">
<style type="text/css">
	.st0{fill:#FFF9E3;}
	.st1{fill:#EFDB9E;}
	.st2{fill:#C6A854;}
	.st3{fill:#333333;}
</style>
<rect class="st0" width="1080" height="1080"/>
<rect x="69.13" y="47.21" class="st1" width="225.64" height="30.77"/>
<rect x="294.77" y="47.21" class="st2" width="225.64" height="30.77"/>
<path class="st3" d="M821.58,818.96c-9.6-8.14-18.77-22.4-27.5-42.78L582.78,230.48c-11.65,1.17-24.31,1.75-37.98,1.75
	c-13.68,0-26.34-0.57-37.98-1.75L310.37,735.14c-12.81,34.35-25.76,58.5-38.85,72.47c-13.1,13.97-26.04,22.13-38.85,24.45v17.46
	c8.73-1.16,19.06-1.88,31-2.18c11.92-0.29,23.71-0.44,35.36-0.44c19.78,0,38.27,0.15,55.44,0.44c17.16,0.3,35.93,1.02,56.32,2.18
	v-17.46c-17.46-0.57-32.45-3.2-44.96-7.86c-12.52-4.65-21.69-12.8-27.5-24.45c-5.82-11.64-7.28-28.23-4.37-49.76
	c2.91-21.53,11.05-49.77,24.45-84.69l19.27-49.77h183.32l52.36,143.19c11.64,29.69,13.38,49.04,5.24,58.06
	c-8.16,9.03-27.07,14.12-56.75,15.28v17.46c15.13-1.16,35.21-1.88,60.24-2.18c25.02-0.29,51.51-0.44,79.45-0.44
	c26.77,0,53.11,0.15,79.01,0.44c25.89,0.3,48.16,1.02,66.79,2.18v-17.46C839.76,831.48,831.18,827.11,821.58,818.96z M384.43,598.06
	l87.53-226.02l82.64,226.02H384.43z"/>
</svg>
